<?xml version="1.0"?>
<svg xmlns="http://www.w3.org/2000/svg" xmlns:xlink="http://www.w3.org/1999/xlink" xmlns:svgjs="http://svgjs.com/svgjs" version="1.1" width="100%" height="100%" x="0" y="0" viewBox="0 0 512 512" style="enable-background:new 0 0 512 512" xml:space="preserve" class=""><g>
<g xmlns="http://www.w3.org/2000/svg">
	<g>
		<path d="M504.396,386.046h-50.102v-62.132c0-4.199-3.405-7.604-7.604-7.604s-7.604,3.405-7.604,7.604v172.083H335.192h-26.607    v-33.911v-22.811v-43.722v-22.811v-43.721v-22.811v-36.117h130.501v18.333c0,4.199,3.405,7.604,7.604,7.604    s7.604-3.405,7.604-7.604V262.49c0-4.199-3.405-7.604-7.604-7.604H342.796V8.4c0-4.199-3.405-7.604-7.604-7.604H177.04    c-4.199,0-7.604,3.405-7.604,7.604v113.752H71.075c-4.199,0-7.604,3.405-7.604,7.604V316.71H7.604    c-4.199,0-7.604,3.405-7.604,7.604V503.6c0,4.199,3.405,7.604,7.604,7.604h63.471h158.154c0.007,0,0.013-0.001,0.019-0.001h71.733    h34.211h111.479c0.006,0,0.013,0.001,0.019,0.001h57.706c4.199,0,7.604-3.405,7.604-7.604V393.65    C512,389.451,508.595,386.046,504.396,386.046z M63.471,495.996H15.208V331.918h48.263V495.996z M221.625,495.996H177.04v0.001    H78.679v-42.049h142.946V495.996z M221.625,387.542h-68.531c-4.199,0-7.604,3.405-7.604,7.604s3.405,7.604,7.604,7.604h68.531    v35.99H78.679v-35.99h38.929c4.199,0,7.604-3.405,7.604-7.604c0-4.199-3.405-7.604-7.604-7.604H78.679v-35.99h142.946V387.542z     M221.625,336.346H78.679v-12.032v-23.959h142.946V336.346z M221.625,285.148H78.679v-35.989h142.946V285.148z M221.625,233.951    H78.679v-35.99h142.946V233.951z M221.625,182.753H78.679v-45.394h142.946V182.753z M293.377,262.491v43.721v22.811v43.721v22.811    v43.722v22.811v33.911h-56.544V129.755c0-4.199-3.404-7.604-7.604-7.604h-10.367v-15.207c0-4.199-3.404-7.604-7.604-7.604    s-7.604,3.405-7.604,7.604v15.207h-19.01V16.004h142.943v238.883h-26.607C296.781,254.887,293.377,258.291,293.377,262.491z     M496.792,495.996h-42.497v-94.743h42.497V495.996z" fill="#ececec" data-original="#000000" style="" class=""/>
	</g>
</g>
<g xmlns="http://www.w3.org/2000/svg">
	<g>
		<path d="M300.981,165.543c-4.2,0-7.604,3.405-7.604,7.604v22.811c0,4.2,3.405,7.604,7.604,7.604c4.2,0,7.604-3.405,7.604-7.604    v-22.811C308.585,168.948,305.181,165.543,300.981,165.543z" fill="#ececec" data-original="#000000" style="" class=""/>
	</g>
</g>
<g xmlns="http://www.w3.org/2000/svg">
	<g>
		<path d="M256.12,165.543c-4.2,0-7.604,3.405-7.604,7.604v22.811c0,4.2,3.405,7.604,7.604,7.604c4.2,0,7.604-3.405,7.604-7.604    v-22.811C263.724,168.948,260.32,165.543,256.12,165.543z" fill="#ececec" data-original="#000000" style="" class=""/>
	</g>
</g>
<g xmlns="http://www.w3.org/2000/svg">
	<g>
		<path d="M300.981,99.34c-4.2,0-7.604,3.405-7.604,7.604v22.811c0,4.199,3.405,7.604,7.604,7.604c4.2,0,7.604-3.405,7.604-7.604    v-22.811C308.585,102.745,305.181,99.34,300.981,99.34z" fill="#ececec" data-original="#000000" style="" class=""/>
	</g>
</g>
<g xmlns="http://www.w3.org/2000/svg">
	<g>
		<path d="M256.12,99.34c-4.2,0-7.604,3.405-7.604,7.604v22.811c0,4.199,3.405,7.604,7.604,7.604c4.2,0,7.604-3.405,7.604-7.604    v-22.811C263.724,102.745,260.32,99.34,256.12,99.34z" fill="#ececec" data-original="#000000" style="" class=""/>
	</g>
</g>
<g xmlns="http://www.w3.org/2000/svg">
	<g>
		<path d="M211.258,33.137c-4.2,0-7.604,3.405-7.604,7.604v22.811c0,4.199,3.405,7.604,7.604,7.604c4.2,0,7.604-3.405,7.604-7.604    V40.741C218.862,36.542,215.459,33.137,211.258,33.137z" fill="#ececec" data-original="#000000" style="" class=""/>
	</g>
</g>
<g xmlns="http://www.w3.org/2000/svg">
	<g>
		<path d="M300.981,33.137c-4.2,0-7.604,3.405-7.604,7.604v22.811c0,4.199,3.405,7.604,7.604,7.604c4.2,0,7.604-3.405,7.604-7.604    V40.741C308.585,36.542,305.181,33.137,300.981,33.137z" fill="#ececec" data-original="#000000" style="" class=""/>
	</g>
</g>
<g xmlns="http://www.w3.org/2000/svg">
	<g>
		<path d="M256.12,33.137c-4.2,0-7.604,3.405-7.604,7.604v22.811c0,4.199,3.405,7.604,7.604,7.604c4.2,0,7.604-3.405,7.604-7.604    V40.741C263.724,36.542,260.32,33.137,256.12,33.137z" fill="#ececec" data-original="#000000" style="" class=""/>
	</g>
</g>
<g xmlns="http://www.w3.org/2000/svg">
	<g>
		<path d="M296.918,233.26c-3.077,1.936-4.372,5.964-2.957,9.326c1.215,2.868,4.073,4.766,7.202,4.689    c3.188-0.078,6.025-2.187,7.034-5.211C310.414,235.413,302.808,229.554,296.918,233.26z" fill="#ececec" data-original="#000000" style="" class=""/>
	</g>
</g>
<g xmlns="http://www.w3.org/2000/svg">
	<g>
		<path d="M256.12,232.075c-4.2,0-7.604,3.405-7.604,7.604v22.811c0,4.2,3.405,7.604,7.604,7.604c4.2,0,7.604-3.405,7.604-7.604    v-22.811C263.724,235.479,260.32,232.075,256.12,232.075z" fill="#ececec" data-original="#000000" style="" class=""/>
	</g>
</g>
<g xmlns="http://www.w3.org/2000/svg">
	<g>
		<path d="M256.12,431.671c-4.2,0-7.604,3.405-7.604,7.604v22.811c0,4.199,3.405,7.604,7.604,7.604c4.2,0,7.604-3.405,7.604-7.604    v-22.811C263.724,435.075,260.32,431.671,256.12,431.671z" fill="#ececec" data-original="#000000" style="" class=""/>
	</g>
</g>
<g xmlns="http://www.w3.org/2000/svg">
	<g>
		<path d="M256.12,365.139c-4.2,0-7.604,3.405-7.604,7.604v22.811c0,4.199,3.405,7.604,7.604,7.604c4.2,0,7.604-3.405,7.604-7.604    v-22.811C263.724,368.544,260.32,365.139,256.12,365.139z" fill="#ececec" data-original="#000000" style="" class=""/>
	</g>
</g>
<g xmlns="http://www.w3.org/2000/svg">
	<g>
		<path d="M256.12,298.608c-4.2,0-7.604,3.405-7.604,7.604v22.811c0,4.199,3.405,7.604,7.604,7.604c4.2,0,7.604-3.405,7.604-7.604    v-22.811C263.724,302.012,260.32,298.608,256.12,298.608z" fill="#ececec" data-original="#000000" style="" class=""/>
	</g>
</g>
<g xmlns="http://www.w3.org/2000/svg">
	<g>
		<path d="M415.897,429.355h-84.123c-4.2,0-7.604,3.405-7.604,7.604s3.404,7.604,7.604,7.604h84.123c4.2,0,7.604-3.405,7.604-7.604    S420.098,429.355,415.897,429.355z" fill="#ececec" data-original="#000000" style="" class=""/>
	</g>
</g>
<g xmlns="http://www.w3.org/2000/svg">
	<g>
		<path d="M415.897,465.299h-84.123c-4.2,0-7.604,3.405-7.604,7.604c0,4.199,3.404,7.604,7.604,7.604h84.123    c4.2,0,7.604-3.405,7.604-7.604C423.501,468.703,420.098,465.299,415.897,465.299z" fill="#ececec" data-original="#000000" style="" class=""/>
	</g>
</g>
<g xmlns="http://www.w3.org/2000/svg">
	<g>
		<path d="M415.897,393.413h-84.123c-4.2,0-7.604,3.405-7.604,7.604s3.404,7.604,7.604,7.604h84.123c4.2,0,7.604-3.405,7.604-7.604    S420.098,393.413,415.897,393.413z" fill="#ececec" data-original="#000000" style="" class=""/>
	</g>
</g>
<g xmlns="http://www.w3.org/2000/svg">
	<g>
		<path d="M415.897,285.583h-84.123c-4.2,0-7.604,3.405-7.604,7.604c0,4.199,3.404,7.604,7.604,7.604h84.123    c4.2,0,7.604-3.405,7.604-7.604C423.501,288.988,420.098,285.583,415.897,285.583z" fill="#ececec" data-original="#000000" style="" class=""/>
	</g>
</g>
<g xmlns="http://www.w3.org/2000/svg">
	<g>
		<path d="M415.897,357.469h-84.123c-4.2,0-7.604,3.405-7.604,7.604s3.404,7.604,7.604,7.604h84.123c4.2,0,7.604-3.405,7.604-7.604    S420.098,357.469,415.897,357.469z" fill="#ececec" data-original="#000000" style="" class=""/>
	</g>
</g>
<g xmlns="http://www.w3.org/2000/svg">
	<g>
		<path d="M415.897,321.527h-84.123c-4.2,0-7.604,3.405-7.604,7.604s3.404,7.604,7.604,7.604h84.123c4.2,0,7.604-3.405,7.604-7.604    S420.098,321.527,415.897,321.527z" fill="#ececec" data-original="#000000" style="" class=""/>
	</g>
</g>
<g xmlns="http://www.w3.org/2000/svg">
	<g>
		<path d="M39.339,344.004c-4.2,0-7.604,3.405-7.604,7.604v19.769c0,4.199,3.404,7.604,7.604,7.604c4.2,0,7.604-3.405,7.604-7.604    v-19.769C46.943,347.409,43.538,344.004,39.339,344.004z" fill="#ececec" data-original="#000000" style="" class=""/>
	</g>
</g>
<g xmlns="http://www.w3.org/2000/svg">
	<g>
		<path d="M39.339,396.469c-4.2,0-7.604,3.405-7.604,7.604v19.769c0,4.199,3.404,7.604,7.604,7.604c4.2,0,7.604-3.405,7.604-7.604    v-19.769C46.943,399.873,43.538,396.469,39.339,396.469z" fill="#ececec" data-original="#000000" style="" class=""/>
	</g>
</g>
<g xmlns="http://www.w3.org/2000/svg">
	<g>
		<path d="M39.339,448.934c-4.2,0-7.604,3.405-7.604,7.604v19.769c0,4.199,3.404,7.604,7.604,7.604c4.2,0,7.604-3.405,7.604-7.604    v-19.769C46.943,452.338,43.538,448.934,39.339,448.934z" fill="#ececec" data-original="#000000" style="" class=""/>
	</g>
</g>
<g xmlns="http://www.w3.org/2000/svg">
	<g>
		<path d="M475.544,419.501c-4.2,0-7.604,3.405-7.604,7.604v21.52c0,4.199,3.404,7.604,7.604,7.604s7.604-3.405,7.604-7.604v-21.52    C483.148,422.906,479.744,419.501,475.544,419.501z" fill="#ececec" data-original="#000000" style="" class=""/>
	</g>
</g>
<g xmlns="http://www.w3.org/2000/svg">
	<g>
		<path d="M453.251,147.293h-92.763c-4.2,0-7.604,3.405-7.604,7.604s3.404,7.604,7.604,7.604h92.763c4.2,0,7.604-3.405,7.604-7.604    S457.451,147.293,453.251,147.293z" fill="#ececec" data-original="#000000" style="" class=""/>
	</g>
</g>
<g xmlns="http://www.w3.org/2000/svg">
	<g>
		<path d="M482.145,179.228h-66.912c-4.2,0-7.604,3.405-7.604,7.604s3.404,7.604,7.604,7.604h66.912c4.2,0,7.604-3.405,7.604-7.604    S486.345,179.228,482.145,179.228z" fill="#ececec" data-original="#000000" style="" class=""/>
	</g>
</g>
<g xmlns="http://www.w3.org/2000/svg">
	<g>
		<path d="M136.941,57.571H70.029c-4.2,0-7.604,3.405-7.604,7.604s3.405,7.604,7.604,7.604h66.912c4.2,0,7.604-3.405,7.604-7.604    S141.142,57.571,136.941,57.571z" fill="#ececec" data-original="#000000" style="" class=""/>
	</g>
</g>
<g xmlns="http://www.w3.org/2000/svg">
	<g>
		<path d="M98.923,82.916H32.012c-4.2,0-7.604,3.405-7.604,7.604s3.405,7.604,7.604,7.604h66.912c4.2,0,7.604-3.405,7.604-7.604    S103.124,82.916,98.923,82.916z" fill="#ececec" data-original="#000000" style="" class=""/>
	</g>
</g>
<g xmlns="http://www.w3.org/2000/svg">
</g>
<g xmlns="http://www.w3.org/2000/svg">
</g>
<g xmlns="http://www.w3.org/2000/svg">
</g>
<g xmlns="http://www.w3.org/2000/svg">
</g>
<g xmlns="http://www.w3.org/2000/svg">
</g>
<g xmlns="http://www.w3.org/2000/svg">
</g>
<g xmlns="http://www.w3.org/2000/svg">
</g>
<g xmlns="http://www.w3.org/2000/svg">
</g>
<g xmlns="http://www.w3.org/2000/svg">
</g>
<g xmlns="http://www.w3.org/2000/svg">
</g>
<g xmlns="http://www.w3.org/2000/svg">
</g>
<g xmlns="http://www.w3.org/2000/svg">
</g>
<g xmlns="http://www.w3.org/2000/svg">
</g>
<g xmlns="http://www.w3.org/2000/svg">
</g>
<g xmlns="http://www.w3.org/2000/svg">
</g>
</g></svg>
